<?xml version="1.0" encoding="UTF-8"?>
<!DOCTYPE svg PUBLIC "-//W3C//DTD SVG 1.1//EN" "http://www.w3.org/Graphics/SVG/1.1/DTD/svg11.dtd">
<!-- Creator: CorelDRAW 2020 (64 Bit) -->
<svg xmlns="http://www.w3.org/2000/svg" xml:space="preserve" width="2.7094mm" height="2.5864mm" version="1.1" style="shape-rendering:geometricPrecision; text-rendering:geometricPrecision; image-rendering:optimizeQuality; fill-rule:evenodd; clip-rule:evenodd"
viewBox="0 0 3.58 3.42"
 xmlns:xlink="http://www.w3.org/1999/xlink"
 xmlns:xodm="http://www.corel.com/coreldraw/odm/2003">
 <defs>
  <style type="text/css">
   <![CDATA[
    .fil0 {fill:#00AFEF}
    .fil1 {fill:#2A82A7}
    .fil3 {fill:#FDBB03;fill-rule:nonzero}
    .fil2 {fill:#FFD421;fill-rule:nonzero}
   ]]>
  </style>
    <mask id="id0">
  <linearGradient id="id1" gradientUnits="userSpaceOnUse" x1="1.84" y1="3.5" x2="1.79" y2="0.09">
   <stop offset="0" style="stop-opacity:0; stop-color:white"/>
   <stop offset="1" style="stop-opacity:1; stop-color:white"/>
  </linearGradient>
     <rect style="fill:url(#id1)" x="-0.06" y="-0.06" width="3.69" height="3.34"/>
    </mask>
     <mask id="id2">
  <linearGradient id="id3" gradientUnits="userSpaceOnUse" x1="1.62" y1="2.56" x2="2.26" y2="0.84">
   <stop offset="0" style="stop-opacity:0; stop-color:white"/>
   <stop offset="1" style="stop-opacity:1; stop-color:white"/>
  </linearGradient>
      <rect style="fill:url(#id3)" x="1.73" y="0.42" width="1.22" height="2.38"/>
     </mask>
     <mask id="id4">
  <linearGradient id="id5" gradientUnits="userSpaceOnUse" x1="1.62" y1="2.56" x2="2.26" y2="0.84">
   <stop offset="0" style="stop-opacity:0; stop-color:white"/>
   <stop offset="1" style="stop-opacity:1; stop-color:white"/>
  </linearGradient>
      <rect style="fill:url(#id5)" x="2.44" y="1.58" width="0.52" height="1.23"/>
     </mask>
     <mask id="id6">
  <linearGradient id="id7" gradientUnits="userSpaceOnUse" x1="1.62" y1="2.56" x2="2.26" y2="0.84">
   <stop offset="0" style="stop-opacity:0; stop-color:white"/>
   <stop offset="1" style="stop-opacity:1; stop-color:white"/>
  </linearGradient>
      <rect style="fill:url(#id7)" x="1.73" y="0.42" width="1.22" height="2.38"/>
     </mask>
     <mask id="id8">
  <linearGradient id="id9" gradientUnits="userSpaceOnUse" x1="0.87" y1="1.38" x2="1.82" y2="2.54">
   <stop offset="0" style="stop-opacity:0; stop-color:white"/>
   <stop offset="1" style="stop-opacity:1; stop-color:white"/>
  </linearGradient>
      <rect style="fill:url(#id9)" x="0.62" y="0.42" width="1.21" height="2.38"/>
     </mask>
     <mask id="id10">
  <linearGradient id="id11" gradientUnits="userSpaceOnUse" x1="0.87" y1="1.38" x2="1.82" y2="2.54">
   <stop offset="0" style="stop-opacity:0; stop-color:white"/>
   <stop offset="1" style="stop-opacity:1; stop-color:white"/>
  </linearGradient>
      <rect style="fill:url(#id11)" x="0.62" y="1.59" width="0.51" height="1.22"/>
     </mask>
     <mask id="id12">
  <linearGradient id="id13" gradientUnits="userSpaceOnUse" x1="0.87" y1="1.38" x2="1.82" y2="2.54">
   <stop offset="0" style="stop-opacity:0; stop-color:white"/>
   <stop offset="1" style="stop-opacity:1; stop-color:white"/>
  </linearGradient>
      <rect style="fill:url(#id13)" x="0.62" y="0.42" width="1.21" height="2.38"/>
     </mask>
 </defs>
 <g id="Camada_x0020_1">
  <metadata id="CorelCorpID_0Corel-Layer"/>
  <g id="_2707943264272">
   <path class="fil0" style="mask:url(#id0)" d="M1.79 0c0.99,0 1.79,0.8 1.79,1.8 0,0.56 -0.25,1.06 -0.65,1.39 -0.02,0.02 -0.04,0.03 -0.06,0.04 -0.02,-0.02 -0.04,-0.05 -0.05,-0.08 0.01,-0.01 0.03,-0.02 0.04,-0.03 0.38,-0.31 0.63,-0.79 0.63,-1.32 0,-0.94 -0.76,-1.71 -1.7,-1.71 -0.94,0 -1.7,0.77 -1.7,1.71 0,0.54 0.25,1.01 0.63,1.33 0.01,0.01 0.02,0.02 0.04,0.03 -0.01,0.03 -0.03,0.05 -0.05,0.08 -0.02,-0.01 -0.03,-0.03 -0.05,-0.04 -0.4,-0.33 -0.66,-0.83 -0.66,-1.39 0,-0.99 0.8,-1.8 1.79,-1.8zm1.03 3.15c0.01,0.03 0.03,0.05 0.05,0.08m-2.16 0c0.02,-0.02 0.04,-0.05 0.05,-0.08"/>
   <path class="fil1" d="M3.29 1.46c0.05,0.14 0.07,0.29 0.07,0.45 0,0.83 -0.71,1.51 -1.58,1.51 -0.87,0 -1.58,-0.68 -1.58,-1.51 0,-0.16 0.02,-0.31 0.07,-0.45 -0.01,0.15 -0.01,0.3 -0.01,0.45 0,0.8 0.68,1.45 1.52,1.45 0.84,0 1.52,-0.65 1.52,-1.45 0,-0.15 0.01,-0.3 -0.01,-0.45z"/>
   <g>
    <path class="fil2" d="M1.78 0.47l0.03 0.02 0.08 0.07 0.09 0.08 0.08 0.06 0.09 0.07 0.12 0.08 0.11 0.06 0.11 0.05 0.2 0.08 0.21 0.08 0.02 0.03 0 0.22 -0.01 0.1 -0.01 0.05c-0.36,0.39 -0.72,0.8 -1.06,1.2l-0.04 0.04 -0.03 -0.03c-0.11,-0.12 -0.21,-0.24 -0.32,-0.36 -0.24,-0.27 -0.54,-0.58 -0.75,-0.87l-0.01 -0.04 0 -0.13 0.01 -0.19 0.03 -0.02 0.17 -0.06 0.17 -0.07 0.13 -0.06 0.14 -0.08 0.09 -0.06 0.09 -0.06 0.11 -0.09 0.05 -0.05 0.05 -0.04 0.04 -0.04 0.03 -0.03zm0.01 0.54l-0.09 0.28 -0.63 0.01 0.01 0.03c0.24,0.24 0.48,0.52 0.7,0.78l0.02 0c0.24,-0.27 0.48,-0.54 0.72,-0.81l-0.01 -0.01 -0.62 0 -0.09 -0.28z"/>
    <path class="fil2" d="M2.89 1.63l0.01 0.01 0 0.78 -0.01 0.04c-0.12,0.11 -0.27,0.19 -0.4,0.29l-0.02 -0.01 0 -0.58 0.01 -0.08c0.08,-0.13 0.29,-0.35 0.4,-0.46z"/>
    <path class="fil2" d="M0.67 1.64l0.03 0.01c0.12,0.15 0.25,0.3 0.38,0.44l0.01 0.05 0 0.62 -0.01 0.01c-0.12,-0.08 -0.23,-0.17 -0.35,-0.26l-0.04 -0.03 -0.01 -0.03 0 -0.81z"/>
    <path class="fil2" d="M1.78 0.47l0.03 0.02 0.08 0.07 0.09 0.08 0.08 0.06 0.09 0.07 0.12 0.08 0.11 0.06 0.11 0.05 0.2 0.08 0.21 0.08 0.02 0.03 0 0.22 -0.01 0.1 -0.01 0.05c-0.36,0.39 -0.72,0.8 -1.06,1.2l-0.04 0.04 -0.03 -0.03c-0.11,-0.12 -0.21,-0.24 -0.32,-0.36 -0.24,-0.27 -0.54,-0.58 -0.75,-0.87l-0.01 -0.04 0 -0.13 0.01 -0.19 0.03 -0.02 0.17 -0.06 0.17 -0.07 0.13 -0.06 0.14 -0.08 0.09 -0.06 0.09 -0.06 0.11 -0.09 0.05 -0.05 0.05 -0.04 0.04 -0.04 0.03 -0.03zm0.01 0.54l-0.09 0.28 -0.63 0.01 0.01 0.03c0.24,0.24 0.48,0.52 0.7,0.78l0.02 0c0.24,-0.27 0.48,-0.54 0.72,-0.81l-0.01 -0.01 -0.62 0 -0.09 -0.28z"/>
   </g>
   <g>
    <path class="fil3" style="mask:url(#id2)" d="M1.78 0.47l0.03 0.02 0.08 0.07 0.09 0.08 0.08 0.06 0.09 0.07 0.12 0.08 0.11 0.06 0.11 0.05 0.2 0.08 0.21 0.08 0.02 0.03 0 0.22 -0.01 0.1 -0.01 0.05c-0.36,0.39 -0.72,0.8 -1.06,1.2l-0.04 0.04 0 -0.64 0.01 0c0.24,-0.27 0.48,-0.54 0.72,-0.81l-0.01 -0.01 -0.62 0 -0.09 -0.28 0 -0.54z"/>
    <path class="fil3" style="mask:url(#id4)" d="M2.89 1.63l0.01 0.01 0 0.78 -0.01 0.04c-0.12,0.11 -0.27,0.19 -0.4,0.29l-0.02 -0.01 0 -0.58 0.01 -0.08c0.08,-0.13 0.29,-0.35 0.4,-0.46z"/>
    <path class="fil3" style="mask:url(#id6)" d="M1.78 0.47l0.03 0.02 0.08 0.07 0.09 0.08 0.08 0.06 0.09 0.07 0.12 0.08 0.11 0.06 0.11 0.05 0.2 0.08 0.21 0.08 0.02 0.03 0 0.22 -0.01 0.1 -0.01 0.05c-0.36,0.39 -0.72,0.8 -1.06,1.2l-0.04 0.04 0 -0.64 0.01 0c0.24,-0.27 0.48,-0.54 0.72,-0.81l-0.01 -0.01 -0.62 0 -0.09 -0.28 0 -0.54z"/>
   </g>
   <g>
    <path class="fil3" style="mask:url(#id8)" d="M1.78 0.47l0.01 0 0 0.54 -0 -0 -0.09 0.28 -0.63 0.01 0.01 0.03c0.24,0.24 0.48,0.52 0.7,0.78l0.01 0 0 0.64 -0.03 -0.03c-0.11,-0.12 -0.21,-0.24 -0.32,-0.36 -0.24,-0.27 -0.54,-0.58 -0.75,-0.87l-0.01 -0.04 0 -0.13 0.01 -0.19 0.03 -0.02 0.17 -0.06 0.17 -0.07 0.13 -0.06 0.14 -0.08 0.09 -0.06 0.09 -0.06 0.11 -0.09 0.05 -0.05 0.05 -0.04 0.04 -0.04 0.03 -0.03z"/>
    <path class="fil3" style="mask:url(#id10)" d="M0.67 1.64l0.03 0.01c0.12,0.15 0.25,0.3 0.38,0.44l0.01 0.05 0 0.62 -0.01 0.01c-0.12,-0.08 -0.23,-0.17 -0.35,-0.26l-0.04 -0.03 -0.01 -0.03 0 -0.81z"/>
    <path class="fil3" style="mask:url(#id12)" d="M1.78 0.47l0.01 0 0 0.54 -0 -0 -0.09 0.28 -0.63 0.01 0.01 0.03c0.24,0.24 0.48,0.52 0.7,0.78l0.01 0 0 0.64 -0.03 -0.03c-0.11,-0.12 -0.21,-0.24 -0.32,-0.36 -0.24,-0.27 -0.54,-0.58 -0.75,-0.87l-0.01 -0.04 0 -0.13 0.01 -0.19 0.03 -0.02 0.17 -0.06 0.17 -0.07 0.13 -0.06 0.14 -0.08 0.09 -0.06 0.09 -0.06 0.11 -0.09 0.05 -0.05 0.05 -0.04 0.04 -0.04 0.03 -0.03z"/>
   </g>
  </g>
 </g>
</svg>
